<?xml version="1.0" encoding="utf-8"?>
<!-- Generator: Adobe Illustrator 25.0.1, SVG Export Plug-In . SVG Version: 6.00 Build 0)  -->
<svg version="1.0" id="Layer_1" xmlns="http://www.w3.org/2000/svg" xmlns:xlink="http://www.w3.org/1999/xlink" x="0px" y="0px"
	 viewBox="0 0 886 568.5" style="enable-background:new 0 0 886 568.5;" xml:space="preserve">
<path d="M544,263.5c-0.5,9.3-0.7,18.6-1.5,27.9c-1,11-3.3,21.7-8.6,31.5c-3,5.6-6.9,10.5-12.6,13.6c-2.8,1.7-6.2,2.2-9.4,1.5
	c-2.9-1-5-3.7-5.1-6.8c0.1-43.9,0.1-87.7,0-131.6c0-1.4,0.4-1.8,1.7-2c5.1-1,10.3-0.7,15.3,0.7c6.7,2.2,11,7,13.9,13.2
	c2.6,6,4.3,12.4,4.9,18.9C543.8,241.3,544.3,252.4,544,263.5L544,263.5z M463.4,179.5c0.1,0.3,0.2,0.6,0.3,0.9c0.5,1,1,2.1,1.6,3.1
	c4.3,7.3,9.4,13.7,17,17.9c0.4,0.4,0.6,0.9,0.6,1.4c0,14.2,0,28.5,0,42.7c0,0.4,0,0.8-0.1,1.1c-8,2.2-13.5,7.7-18.2,14.1
	c0.1,0,0.3,0,0.4,0c0.3-0.1,0.7-0.2,1-0.2c5.4-1.4,11.1-0.5,15.8,2.4c0.7,0.4,1.2,1.1,1.1,1.9c0,22.1,0,44.3,0,66.5
	c0,0.8-0.4,1.5-1,1.9c-3,2.5-6,4.9-8.9,7.5c-2.3,2.1-4.4,4.4-6.7,6.7h0.7c4.2-0.5,8.4-1.1,12.7-1.4c5.5-0.4,11-0.8,16.5-0.8
	c7.5,0.3,15-0.2,22.5-1.5c12-2.4,22.6-7.7,30.9-17c7.1-7.9,11.2-17.2,13.8-27.4c2.2-9.7,3.4-19.6,3.4-29.5
	c0.5-11.9,0.1-23.8-1.3-35.7c-0.9-7.7-2.8-15.2-5.7-22.4c-4.3-10.2-11.4-17.8-22-21.6c-6.4-2.2-13.1-3.3-19.9-3.3
	c-9.4-0.2-18.7-0.3-28.1-0.7c-6.7,0-13.4-1.3-19.7-3.8C467.9,181.5,465.8,180.5,463.4,179.5L463.4,179.5z"/>
<path d="M793.1,195.5c7.4-2.9,15.4-3.5,23.5-3.6c-7.7,4.4-12.6,11.5-17.3,18.5c-3.2,4.7-5.9,9.6-8.8,14.4l-0.8,1.2
	c-0.4-3.1-0.6-6.1-1-9c-1-6.5-2.4-12.9-5.8-18.6c-1.3-2.4-3.3-4.3-5.7-5.5c-2.5-1.3-5.6-1.1-7.9,0.4c-2.6,1.8-4.8,4.1-6.4,6.8
	c-3.8,6.3-6.5,13.2-8.1,20.4c-2.5,10.4-4,20.9-4.4,31.6c-0.7,13.4-0.3,26.9,1.2,40.2c1.3,11.2,3.4,22.2,8.2,32.5
	c1.9,4.4,4.6,8.4,8.2,11.7c0.9,0.8,1.8,1.4,2.9,2c1.8,1.3,4.4,1,5.8-0.8c1.3-1.4,2.5-2.9,3.4-4.6c2.7-5.2,4.7-10.7,5.8-16.4
	c2.5-10,3.7-20.4,3.3-30.7c-0.1-4.3-0.9-8.6-2.4-12.6c0,0,0-0.1,0-0.1c-1.5-3.3-3.4-6.3-7.4-6.4c-4.2-0.3-8.2,2-10,5.7
	c-1.7,3.2-2.6,6.8-2.7,10.5c-0.1,3.8,0.1,7.6,0.2,11.4c0.1,0.6,0,1.1-0.2,1.6c-0.3-0.4-0.6-0.8-0.9-1.3c-7.3-12.2-7.6-24.9-2.6-38
	c0.4-0.7,0.3-1.5-0.2-2.1c-2.8-3.8-3.7-8.3-4.3-13.2c0.6,0.5,0.9,0.8,1.3,1.1c7.4,6.2,16.5,10.2,26.1,11.6c4.9,1,10,0.9,14.9-0.1
	c8.8-2.2,13.9-8,16.2-16.6c0.1-0.5,0.2-0.9,0.4-1.5c0.1,0.2,0.2,0.2,0.2,0.3c0.6,8.6,0.3,17-3.3,25c-0.8,1.7-1.9,3.2-2.8,4.9
	c-0.4,0.6-0.6,1.2-0.7,1.9c0.2,13.5-1.2,27-4.3,40.1c-2.3,9.6-5.7,18.8-11.5,26.8c-5.2,7.2-11.9,12.3-20.6,14.2
	c-8.4,1.9-15.9-0.5-22.5-5.8c-6.4-5.3-11.6-11.9-15.2-19.4c-6.4-12.3-10.6-25.6-12.4-39.3c-0.8-5.6-0.9-11.4-1.2-17.1
	c0.1-0.8-0.5-1.6-1.3-1.8c-3.5-1.4-7.1-2.8-10.6-4.2l-1.3-0.6c2.1-1,4-1.8,5.8-2.8c2.4-1.3,4.7-2.7,7-4.1c0.9-0.6,1.5-1.7,1.6-2.8
	c2.3-16.7,6.7-32.8,15.3-47.6c3.9-7.2,9.4-13.3,16.1-17.9c4.9-3.5,10.9-5.2,16.9-5c5.2,0.4,10,2.9,13.5,6.7
	C788.8,190.1,790.9,192.9,793.1,195.5L793.1,195.5z"/>
<path d="M103.4,360.7c3.9,3,8.1,5.4,12.6,7.3c10.7,4.5,22.4,6.1,33.9,4.8c10.7-1.2,21.2-4.3,30.9-9.2c13.7-6.5,28-11.6,42.7-15
	c16.8-4.1,33.8-7.1,51-9c13.5-1.5,27-2.3,40.6-2.5c14.6-0.3,29.1,0.5,43.5,2.6c21.7,3.2,42.1,9.8,60.5,22c7.8,5,14.7,11.2,20.4,18.5
	c0.7,0.9,1.3,1.9,2,2.9c6.3-5.6,13.3-10.3,20.9-14.2c13.1-6.8,27-12,41.4-15.3c17.1-4.1,34.6-6.3,52.2-6.6
	c14.6-0.3,29.2,0.4,43.7,1.9c23.2,2.4,45.9,6.8,68.7,11.5c18.1,3.6,36.2,7.1,54.3,10.2c10.2,1.8,20.6,2.7,31,2.5
	c10.1-0.2,20-1.5,29.3-5.9c6.8-3.1,12.5-8.3,16.3-14.7c0.1-0.1,0.2-0.3,0.3-0.5c0.1-0.1,0.2-0.2,0.3-0.3c-0.9,3.8-2.6,7.3-5,10.3
	c-5.2,6.8-12.3,10.8-20.3,13.5c-6.8,2.2-13.9,3.4-21,3.8c-0.5,0-1,0.1-1.5,0.4c-5,3.8-10.8,6.3-17,7.4c-9.7,1.9-19.6,2.2-29.4,1
	c-17.2-1.8-33.5-6.9-49.9-12c-16-5-32-10.2-48.2-15c-14.4-4.2-29.1-6.8-44.1-8c-13.9-1.1-28-0.7-41.8,1
	c-14.8,1.6-29.4,5.1-43.4,10.3c-10.3,3.7-19.8,9.1-28.3,16c-2.9,2.5-5.3,5.4-7.9,8.2c-0.1,0.1-0.3,0.3-0.4,0.5
	c-7.9-13-19-22.2-32.2-29.3c-11.7-6-24.4-10-37.4-12c-12.4-2-25-2.9-37.6-2.7c-13.2,0.1-26.5,1.2-39.6,3
	c-20.3,2.7-40.1,7.7-59.2,14.9c-7.9,3.1-15.5,6.9-23.2,10.5c-10,4.8-20.6,8-31.5,9.5c-8.2,1.3-16.6,0.6-24.6-1.8
	c-1.8-0.4-3.6-0.6-5.5-0.5c-9.9-0.5-19.6-2.4-28.8-5.9c-6.1-2.2-11.7-5.8-16.2-10.5c-1-1.1-1.8-2.3-2.7-3.5L103.4,360.7L103.4,360.7
	z"/>
<path d="M92.8,323.4c2.5,0,5-0.2,7.5-0.6c4.7-0.9,8.7-4.2,10.5-8.6c3.9-8.6,4.8-18.4,2.4-27.5c-1.4-5.3-4.2-9.8-10-11.3
	c-3.9-1-7.9-0.8-11.7,0.5c-6.6,2.1-11.7,7.5-13.4,14.2c-5,15.8-1.7,30,8.4,42.8c3.1,4.1,7.1,7.4,11.6,9.8c7.1,3.7,15.4,4.3,22.9,1.5
	c11.3-3.7,20.9-9.9,27-20.4c7.9-13.4,8.6-27,0.4-40.5c-9.2-15.2-22.8-24.8-39.5-30c-9.3-2.9-18.5-1.3-27.2,3.1l-1,0.5
	c2.9-6.1,11-12,18.7-13.9l-4-4.3c-4.4-4.5-7.9-9.9-10.2-15.7c-4.7-12.5-0.6-26.7,10.1-34.8c6.7-5.1,14.1-8,22.7-7.3
	c7.8,0.6,14.8,3,20.2,9.1c0.4,0.3,1,0.4,1.5,0.2c5.5-2,11.3-3,17.1-3c2.3,0,4.7,0.4,7,0.6c-4.5,5.7-9.1,11.1-13.4,16.8
	c-4.3,5.7-7.9,11.9-10.8,18.5c-0.1-1.4-0.2-2.8-0.3-4.1c-0.3-6.2-1.9-12.2-4.6-17.8c-2.9-5.9-8-10.4-14.2-12.5
	c-6.9-2.3-18.4,3.4-18.3,13.8c0.1,7.1,3.1,12.8,7.6,18c3.9,4.5,9.1,7.5,14,10.8c8.2,5.4,16.3,10.9,24.4,16.5
	c0.6,0.5,1.4,0.5,2.1,0.2c7.2-2.9,11-8.4,12.2-15.9c0.1-0.6,0.2-1.2,0.3-1.8h0.4c0.5,2.8,1.2,5.6,1.6,8.5c0.6,3.6,0.6,7.3,0,11
	c-0.5,3.1-1.9,5.9-4.1,8.1c0.2,0.3,0.4,0.6,0.6,0.9c7.5,8.6,11.7,19.6,11.8,31.1c-0.1,9-2.3,17.7-6.6,25.6
	c-6.6,13.5-17.5,24.5-30.9,31.3c-6.9,3.6-14.6,5.4-22.4,5.1c-9.5-0.4-18.6-4-25.9-10.1c-10.2-8.2-16.9-20-18.7-33
	c-2.7-20.4,11-39.4,31.2-43.3c11.4-2,21.4,0.8,28.6,10.3c6,7.6,7.9,17.8,5,27.1c-1.9,6.5-7,11.6-13.5,13.5c-0.9,0.3-1.7,0.9-2.3,1.7
	c-4.8,6.7-12.8,9.2-21.4,6.9C94.8,324.1,93.7,323.7,92.8,323.4z"/>
<path d="M161.2,213.2h38.3c-1.9,2.6-1.4,5.4-0.6,8c1.2,4,2.7,7.9,4.4,11.8c8.1,18.7,16.2,37.4,24.4,56.1c0.1,0.3,0.3,0.6,0.6,1.3
	c0.1-0.7,0.1-1,0.1-1.4v-47.5c0.2-6.1-0.8-12.3-2.8-18.1c-1.3-4-3.7-7.5-6.9-10.2h29.1c-1.6,0.9-3.2,1.9-4.6,3.1
	c-3.4,3.1-4.9,7.2-6,11.5c-1.3,4.9-2,10-1.9,15.1c0,20,0,40.1,0,60.2c0,2.9,0.3,5.8,0.9,8.7c1.4,6.6,4.7,11.8,11.9,14.1h-36.4
	c3.8-2.9,3.8-6.9,3.4-11c-0.1-0.7-0.3-1.3-0.5-1.9c-8.4-19.4-16.9-38.9-25.3-58.3c-0.1-0.3-0.3-0.5-0.6-0.7v1.5
	c0,18.2,0.1,36.4,0,54.7c-0.1,8.5,4.8,13.1,11.1,15.2l1.5,0.5h-34.7c6.2-2.2,9-7,10.9-12.6c0.2-0.7,0.3-1.4,0.3-2.1
	c0-2.2,0-4.4,0-6.6c0-17.2,0-34.5,0.1-51.7c0-5.1,0-10.3-0.1-15.4c-0.1-4.4-1.6-8.6-4.2-12.1c-3-4.2-6.6-7.8-10.7-10.9
	c-0.5-0.4-1-0.8-1.8-1.3L161.2,213.2z"/>
<path d="M407.4,219.7c1.5,0.2,2.9,0.4,4.2,0.7c9.9,2.1,17.3,10.4,18.4,20.5c1.2,7.6,1.4,15.3,0.8,23c-0.6,5.9-1.8,11.7-5.2,16.8
	c-4.4,6.7-11,8.1-17.8,6.8c-0.1-0.1-0.3-0.1-0.4-0.2L407.4,219.7z M408.3,293c4.4,0.9,9,1.2,13.5,0.8c11.9-1.1,20.6-6.8,25.7-17.8
	c6.1-13.3,6.1-26.9,1.4-40.6c-2.6-7.9-8.3-14.3-15.7-17.8c-7-3.3-14.7-4.9-22.4-4.8c-9.1-0.1-18.2,0.2-27.3,0.3c-2.4,0-4.8,0-7.2,0
	c0.1,0.3,0.3,0.6,0.6,0.7c6.1,3.4,9.8,9.9,9.6,16.9c0,12.5,0,25.1,0,37.6c0,16.9,0,33.9,0,50.8c0,6.1-0.9,11.8-6.7,15.4
	c15-1.4,27.6,3.6,38.6,13.3c-0.2-0.4-0.4-0.8-0.6-1.1c-6.4-8.8-9.9-19.3-10.2-30.2c-0.2-7.6,0-15.2,0-22.8c0-0.3,0-0.5,0.1-0.8
	C407.7,292.9,408,292.9,408.3,293L408.3,293z"/>
<path d="M292.8,280.3c0,1.4,0.1,2.5,0,3.7c-0.3,8.2-1.7,16.4-4.3,24.2c-1.1,3.3-2.9,6.4-5.3,8.9c-0.6,0.6-1.3,1.1-2,1.6
	c-2.2,1.8-5.5,1.5-7.4-0.7c-3-3.1-5.1-6.9-6.3-11c-2.5-7.7-4.1-15.7-4.6-23.8c-0.8-8.6-0.8-17.3,0-25.9c0.9-9.4,2.3-18.6,6.1-27.3
	c1.1-2.8,2.8-5.3,5-7.4c0.3-0.2,0.5-0.5,0.8-0.7c2.6-1.7,4.3-1.4,6.3,1c2.2,3.1,3.6,6.7,4,10.4c2.5,14.7,1.7,29.7-2.4,44
	c-1.7,5.6-3.4,8.9-8.3,15.9C283.1,292.3,288.4,287.2,292.8,280.3z M240.6,269.1c-0.1,10.3,1.6,20.6,5.1,30.3c3,7.9,7,15.1,13.5,20.6
	c9.1,7.8,20.3,7.9,29.6,0.5c4.7-3.9,8.6-8.8,11.2-14.4c6.4-12.8,8.5-26.5,7.9-40.6c-0.3-9.8-2.3-19.4-6-28.4
	c-2.7-6.9-7-13.1-12.5-18c-9.3-7.9-20.8-7.9-30.1,0c-4.7,4.1-8.5,9.3-11.1,15C243.1,245,240.5,257,240.6,269.1L240.6,269.1z"/>
<path d="M365.7,280.6c-0.2,9.4-1.1,18.7-4.3,27.6c-1,3.1-2.6,5.9-4.7,8.4c-1,1-2.1,1.9-3.3,2.7c-1.8,1.2-4.1,1-5.7-0.4
	c-1.9-1.5-3.5-3.5-4.6-5.7c-2.7-5.5-4.6-11.4-5.6-17.4c-2.6-14.5-2.9-29.4-1-44c0.7-7.2,2.5-14.3,5.3-21c1.1-2.4,2.5-4.7,4.1-6.9
	c0.9-1.1,2.1-1.9,3.4-2.5c1.3-0.7,3-0.4,3.9,0.8c1.8,1.9,3,4.1,3.7,6.6c1.5,5.1,2.3,10.4,2.4,15.7c0.6,9.7-0.2,19.5-2.4,29
	c-1.6,7.2-4.7,13.9-9.3,19.6c2.2,0.5,6.9-1.2,10.5-3.9C361,286.6,363.6,283.8,365.7,280.6z M380.8,265.5c-0.3-10.6-2.7-21-7-30.7
	c-2.8-6.5-7.1-12.2-12.5-16.6c-3.8-3.1-8.4-4.9-13.3-5.1c-6.9-0.2-12.6,2.7-17.4,7.4c-6.2,5.9-10,13.3-12.7,21.4
	c-3.5,10.7-4.9,22-4.1,33.2c0.4,9.8,2.7,19.4,6.6,28.3c2.8,6.7,7.1,12.7,12.8,17.4c8.9,6.9,19.3,7,28.2,0.1
	c4.8-3.9,8.7-8.8,11.4-14.4c5.9-11.6,8.1-24,8.1-36.8C380.8,268.2,380.8,266.8,380.8,265.5L380.8,265.5z"/>
<path d="M624.4,278.6c0,1.4,0.1,2.5,0,3.6c-0.5,8.2-1.4,16.4-4.3,24.2c-1.2,2.7-2.6,5.4-4.2,7.9c-0.5,0.7-1.1,1.4-1.8,1.9
	c-3.4,2.8-6.1,2.7-9.2-0.5c-2.4-2.7-4.1-5.8-5.2-9.1c-2.5-7.1-4.1-14.5-4.8-22c-0.9-8.5-1.1-17.1-0.5-25.6
	c0.8-10.7,2.2-21.3,6.7-31.2c0.9-1.8,1.9-3.5,3.1-5.2c0.4-0.6,0.9-1.1,1.5-1.6c3.1-2.8,5.6-2.5,7.9,1c2,3.3,3.3,7.1,3.7,11
	c2.1,13.5,1.4,27.3-2,40.6c-1.6,6.4-4.6,12.4-8.8,17.5c0,0,0,0.2-0.1,0.4C614.6,290.6,620,285.5,624.4,278.6L624.4,278.6z
	 M639.6,271c0.3-10.1-1-20.2-4-29.8c-2.7-8.2-6.4-15.8-12.6-22c-10.5-10.4-23.8-10.3-34.3,0.1c-4,4.1-7.2,8.9-9.5,14.2
	c-4.1,9.2-6.4,19.1-6.8,29.2c-0.8,11.6,0.8,23.3,4.7,34.3c2.8,7.9,6.8,15.2,13.2,20.9c8.9,8,20.1,8.6,29.5,1.5
	c4.1-3.1,7.5-7,10-11.5C636.6,296.2,639.2,283.3,639.6,271L639.6,271z"/>
<path d="M699.8,248.6c-2-4.8-4-9.7-6.2-14.5c-1.7-4.1-4.2-7.9-7.3-11.2c-0.5-0.5-1-1-1.6-1.4c-2.1-1.8-5.2-1.5-7,0.5l0,0
	c-2.7,3-4.6,6.5-5.7,10.4c-2.4,7.5-4,15.3-4.6,23.2c-0.9,9.4-0.9,19,0,28.4c0.8,8.2,1.8,16.5,4.9,24.2c0.9,2.4,2.2,4.6,3.8,6.6
	c3.2,4,9.1,4.7,13.2,1.5l0.4-0.3c2.8-2.5,4.8-5.7,5.8-9.3c2.3-6.1,2.3-12.9,0.2-19.1c-0.6-1.5-1.5-3-2.6-4.2
	c-1.4-1.6-3.8-1.8-5.5-0.4c-0.2,0.1-0.3,0.3-0.4,0.4c-1.7,1.9-2.7,4.3-3,6.9c-0.1,0.5-0.2,1-0.3,1.6c-3.3-1.7-4.1-6.9-2.3-15.8
	c-4.8-2.9-7.2-7.7-9.3-12.6c4.6,3.9,10,3.4,15.4,2.7c4.5-0.6,9-1.3,13.5-1.5c7.3-0.3,12.6,3.1,15.7,9.6c1.2,2.5,2,5.2,3.1,8
	c-2.5-0.2-4.7-0.5-6.8-0.6c-3.2-0.1-3.2,0-3.5,3.1c-0.9,9.2-2.8,18.1-7.2,26.3c-3.7,6.7-8.7,11.9-16.2,14.3
	c-10.7,3.5-20.8,0.2-28.3-9.1c-5.1-6.7-8.8-14.3-10.8-22.5c-3-11.1-3.7-22.6-2.3-33.9c0.9-8.9,3.2-17.6,6.8-25.8
	c2.6-6.2,6.7-11.6,11.9-15.9c4.2-3.2,9.2-5.2,14.5-5.6c7.1-0.6,12.6,2.6,17.3,7.6c0.3,0.4,0.6,0.8,1,1.1l1,1.2
	c4-5.7,9.8-7.9,16.5-8.8C707.9,225.2,702,236.2,699.8,248.6L699.8,248.6z"/>
<path d="M445.5,333.4c0.4,2.9,0.6,5.8,1.1,8.8c0.7,5.2,2.2,10.3,4.6,15.1c1.7,3.6,4.4,6.7,7.8,8.8c-6.4,1.9-10.7,6.2-14.9,10.8
	c-2.8-4.8-7.4-7.7-11.9-10.7c4.9-2.2,6.8-6.7,8.5-11.2c2.3-6.8,3.9-13.8,4.6-20.9l0.1-0.7L445.5,333.4z"/>
</svg>
